# 3ds Max Wavefront OBJ Exporter v0.97b - (c)2007 guruware
# 创建的文件:29.02.2024 14:10:14

mtllib z.mtl

#
# object Text003
#

v  0.8148 -1.3834 -0.2500
v  0.8148 -1.0726 -0.2500
v  0.8148 -1.0726 0.2500
v  0.8148 -1.3834 0.2500
v  -0.4700 -1.0726 -0.2500
v  -0.4700 -1.0726 0.2500
v  0.7770 1.0423 -0.2500
v  0.7770 1.0423 0.2500
v  0.7770 1.3834 -0.2500
v  0.7770 1.3834 0.2500
v  -0.7959 1.3834 -0.2500
v  -0.7959 1.3834 0.2500
v  -0.7959 1.0726 -0.2500
v  -0.7959 1.0726 0.2500
v  0.4320 1.0726 -0.2500
v  0.4320 1.0726 0.2500
v  -0.8148 -1.0423 -0.2500
v  -0.8148 -1.0423 0.2500
v  -0.8148 -1.3834 -0.2500
v  -0.8148 -1.3834 0.2500
# 20 vertices

vn 1.0000 0.0000 -0.0000
vn 0.0000 1.0000 0.0000
vn 0.8614 -0.5079 -0.0000
vn -1.0000 0.0000 -0.0000
vn 0.0000 -1.0000 -0.0000
vn -0.8614 0.5079 0.0000
vn 0.0000 0.0000 -1.0000
vn 0.0000 -0.0000 1.0000
# 8 vertex normals

g Text003
usemtl wire_138008110
s 1
f 1//1 2//1 3//1 4//1 
s 4
f 2//2 5//2 6//2 3//2 
s 2
f 5//3 7//3 8//3 6//3 
s 4
f 7//1 9//1 10//1 8//1 
s 2
f 9//2 11//2 12//2 10//2 
s 4
f 11//4 13//4 14//4 12//4 
s 2
f 13//5 15//5 16//5 14//5 
s 4
f 15//6 17//6 18//6 16//6 
s 2
f 17//4 19//4 20//4 18//4 
s 4
f 19//5 1//5 4//5 20//5 
s 16
f 17//7 5//7 1//7 19//7 
f 11//7 9//7 15//7 13//7 
f 7//7 5//7 15//7 9//7 
f 5//7 17//7 15//7 
f 2//7 1//7 5//7 
f 18//8 20//8 4//8 6//8 
f 12//8 14//8 16//8 10//8 
f 8//8 10//8 16//8 6//8 
f 6//8 16//8 18//8 
f 3//8 6//8 4//8 
# 16 polygons - 4 triangles

